<?xml version="1.0" encoding="UTF-8"?>
<svg width="50px" height="50px" viewBox="0 0 50 50" version="1.1" xmlns="http://www.w3.org/2000/svg" xmlns:xlink="http://www.w3.org/1999/xlink">
    <!-- Generator: Sketch 43.1 (39012) - http://www.bohemiancoding.com/sketch -->
    <title>Artboard Copy 14</title>
    <desc>Created with Sketch.</desc>
    <defs></defs>
    <g id="Page-1" stroke="none" stroke-width="1" fill="none" fill-rule="evenodd">
        <g id="Artboard-Copy-14">
            <rect id="Rectangle-Copy-4" fill="#E74C3C" x="0" y="0" width="50" height="50" rx="5"></rect>
            <path d="M10.9609375,27.4453125 C11.0338545,27.9713568 11.1770823,28.364582 11.390625,28.625 C11.781252,29.0989607 12.4505161,29.3359375 13.3984375,29.3359375 C13.9661487,29.3359375 14.4270816,29.2734381 14.78125,29.1484375 C15.4531284,28.908853 15.7890625,28.4635449 15.7890625,27.8125 C15.7890625,27.4322898 15.6223975,27.1380219 15.2890625,26.9296875 C14.9557275,26.7265615 14.4322952,26.5468758 13.71875,26.390625 L12.5,26.1171875 C11.3020773,25.8463528 10.4739606,25.5520849 10.015625,25.234375 C9.23957945,24.7031223 8.8515625,23.8724015 8.8515625,22.7421875 C8.8515625,21.7109323 9.22655875,20.8541701 9.9765625,20.171875 C10.7265662,19.4895799 11.8281177,19.1484375 13.28125,19.1484375 C14.4947977,19.1484375 15.5299436,19.4700489 16.3867188,20.1132812 C17.2434939,20.7565136 17.6927081,21.690098 17.734375,22.9140625 L15.421875,22.9140625 C15.3802081,22.2213507 15.0781278,21.7291681 14.515625,21.4375 C14.1406231,21.2447907 13.674482,21.1484375 13.1171875,21.1484375 C12.4973927,21.1484375 12.002606,21.2734362 11.6328125,21.5234375 C11.263019,21.7734388 11.078125,22.1223936 11.078125,22.5703125 C11.078125,22.9817729 11.2604148,23.2890615 11.625,23.4921875 C11.8593762,23.6276048 12.3593712,23.7864574 13.125,23.96875 L15.109375,24.4453125 C15.979171,24.6536469 16.6354145,24.9322899 17.078125,25.28125 C17.7656284,25.8229194 18.109375,26.6067657 18.109375,27.6328125 C18.109375,28.6849011 17.7070353,29.5585903 16.9023438,30.2539062 C16.0976522,30.9492222 14.9609448,31.296875 13.4921875,31.296875 C11.99218,31.296875 10.8125043,30.9544305 9.953125,30.2695312 C9.0937457,29.584632 8.6640625,28.6432352 8.6640625,27.4453125 L10.9609375,27.4453125 Z M28.40625,21.5234375 L22.3125,21.5234375 L22.3125,23.96875 L27.90625,23.96875 L27.90625,25.96875 L22.3125,25.96875 L22.3125,28.9296875 L28.6875,28.9296875 L28.6875,31 L19.9609375,31 L19.9609375,19.484375 L28.40625,19.484375 L28.40625,21.5234375 Z M37.9257812,28.2265625 C38.4856799,27.523434 38.765625,26.523444 38.765625,25.2265625 C38.765625,23.9348894 38.4856799,22.9362014 37.9257812,22.2304688 C37.3658826,21.5247361 36.6093798,21.171875 35.65625,21.171875 C34.7031202,21.171875 33.9427112,21.523434 33.375,22.2265625 C32.8072888,22.929691 32.5234375,23.929681 32.5234375,25.2265625 C32.5234375,26.523444 32.8072888,27.523434 33.375,28.2265625 C33.9427112,28.929691 34.7031202,29.28125 35.65625,29.28125 C36.6093798,29.28125 37.3658826,28.929691 37.9257812,28.2265625 Z M39.4296875,29.9765625 C38.5598915,30.8724003 37.3020916,31.3203125 35.65625,31.3203125 C34.0104084,31.3203125 32.7526085,30.8724003 31.8828125,29.9765625 C30.71614,28.8775987 30.1328125,27.2942812 30.1328125,25.2265625 C30.1328125,23.117177 30.71614,21.5338595 31.8828125,20.4765625 C32.7526085,19.5807247 34.0104084,19.1328125 35.65625,19.1328125 C37.3020916,19.1328125 38.5598915,19.5807247 39.4296875,20.4765625 C40.5911516,21.5338595 41.171875,23.117177 41.171875,25.2265625 C41.171875,27.2942812 40.5911516,28.8775987 39.4296875,29.9765625 Z" id="SEO" fill="#FFFFFF"></path>
        </g>
    </g>
</svg>