<?xml version="1.0" encoding="UTF-8"?>
<svg width="50px" height="50px" viewBox="0 0 50 50" version="1.1" xmlns="http://www.w3.org/2000/svg" xmlns:xlink="http://www.w3.org/1999/xlink">
    <!-- Generator: Sketch 43.1 (39012) - http://www.bohemiancoding.com/sketch -->
    <title>Artboard Copy 15</title>
    <desc>Created with Sketch.</desc>
    <defs></defs>
    <g id="Page-1" stroke="none" stroke-width="1" fill="none" fill-rule="evenodd">
        <g id="Artboard-Copy-15">
            <rect id="Rectangle-Copy-6" fill="#2980B9" x="0" y="0" width="50" height="50" rx="5"></rect>
            <path d="M13.6606445,17.8857422 L15.6601563,26.5400391 L16.0908203,28.949707 L16.5317383,26.5913086 L18.2338867,17.8857422 L21.5664063,17.8857422 L23.3608398,26.5400391 L23.8222656,28.949707 L24.2836914,26.6323242 L26.3037109,17.8857422 L29.5131836,17.8857422 L25.2578125,33 L22.2431641,33 L20.4179688,24.1611328 L19.8847656,21.2387695 L19.3515625,24.1611328 L17.5263672,33 L14.59375,33 L10.3076172,17.8857422 L13.6606445,17.8857422 Z M39.310791,21.0131836 C38.8972147,20.678221 38.3178748,20.5107422 37.5727539,20.5107422 L34.6298828,20.5107422 L34.6298828,24.9609375 L37.5727539,24.9609375 C38.3178748,24.9609375 38.8972147,24.779787 39.310791,24.4174805 C39.7243673,24.055174 39.9311523,23.480961 39.9311523,22.6948242 C39.9311523,21.9086875 39.7243673,21.3481462 39.310791,21.0131836 Z M41.7050781,26.4580078 C40.8027299,27.1962928 39.5141685,27.5654297 37.8393555,27.5654297 L34.6298828,27.5654297 L34.6298828,33 L31.4921875,33 L31.4921875,17.8857422 L38.0751953,17.8857422 C39.592781,17.8857422 40.8027299,18.2753867 41.7050781,19.0546875 C42.6074264,19.8339883 43.0585938,21.0405192 43.0585938,22.6743164 C43.0585938,24.458505 42.6074264,25.7197229 41.7050781,26.4580078 Z" id="WP" fill="#FFFFFF"></path>
        </g>
    </g>
</svg>