<svg height="512pt" viewBox="0 -13 512 511" width="512pt" xmlns="http://www.w3.org/2000/svg"><path d="m386.425781 138.671875c0-72.042969-58.394531-130.445313-130.425781-130.445313s-130.425781 58.402344-130.425781 130.445313 58.394531 130.449219 130.425781 130.449219 130.425781-58.40625 130.425781-130.449219zm0 0" fill="#fff"/><path d="m256 8.226562c-5.761719 0-11.433594.378907-16.996094 1.101563 64 8.332031 113.425782 63.0625 113.425782 129.34375s-49.425782 121.011719-113.425782 129.34375c5.5625.726563 11.234375 1.105469 16.996094 1.105469 72.03125 0 130.425781-58.40625 130.425781-130.449219s-58.394531-130.445313-130.425781-130.445313zm0 0" fill="#e1eaf8"/><path d="m481.03125 431.664062h-450.0625c-17.101562 0-30.96875-13.867187-30.96875-30.96875v-70.746093c0-17.105469 13.867188-30.972657 30.96875-30.972657h450.0625c17.101562 0 30.96875 13.867188 30.96875 30.972657v70.746093c0 17.101563-13.867188 30.96875-30.96875 30.96875zm0 0" fill="#ffc843"/><path d="m481.03125 298.976562h-33.996094c17.101563 0 30.96875 13.867188 30.96875 30.972657v70.746093c0 17.101563-13.867187 30.96875-30.96875 30.96875h33.996094c17.101562 0 30.96875-13.867187 30.96875-30.96875v-70.746093c0-17.105469-13.867188-30.972657-30.96875-30.972657zm0 0" fill="#ffb400"/><path d="m404.6875 477.335938h-94.503906c-7.738282 0-15.125-3.230469-20.378906-8.914063l-10.660157-11.539063c-5.253906-5.683593-12.640625-8.914062-20.378906-8.914062h-2.863281c-7.738282 0-15.125 3.230469-20.378906 8.914062l-10.660157 11.539063c-5.253906 5.683594-12.640625 8.914063-20.378906 8.914063h-97.171875c-34.226562 0-61.96875-27.746094-61.96875-61.976563v-100.074219c0-34.230468 27.742188-61.980468 61.96875-61.980468h297.375c34.222656 0 61.96875 27.75 61.96875 61.980468v100.070313c0 34.230469-27.742188 61.980469-61.96875 61.980469zm0 0" fill="#76ffd9"/><g fill="#5de0bf"><path d="m404.6875 253.304688h-33.996094c34.222656 0 61.96875 27.75 61.96875 61.980468v100.070313c0 34.230469-27.742187 61.980469-61.96875 61.980469h33.996094c34.222656 0 61.96875-27.75 61.96875-61.980469v-100.070313c0-34.230468-27.742188-61.980468-61.96875-61.980468zm0 0"/><path d="m214.542969 253.304688-168.824219 168.824218c2.878906 26.484375 22.433594 47.945313 47.949219 53.683594l216.171875-222.507812zm0 0"/><path d="m327.054688 477.335938h77.632812c34.222656 0 61.96875-27.75 61.96875-61.980469v-100.070313c0-6.332031-.953125-12.4375-2.71875-18.191406zm0 0"/></g><path d="m463.9375 297.09375-31.277344 41.183594v77.078125c0 34.230469-27.742187 61.980469-61.96875 61.980469h33.996094c34.222656 0 61.96875-27.75 61.96875-61.980469v-100.070313c0-6.332031-.953125-12.4375-2.71875-18.191406zm0 0" fill="#00c395"/><path d="m204.226562 184.167969c2.660157 6.042969 11.402344 6.082031 14.117188.0625l35.542969-78.785157c4.101562-9.082031-9.984375-15.4375-14.085938-6.355468l-28.414062 62.984375-27.691407-62.917969c-4.015624-9.125-18.160156-2.898438-14.144531 6.222656zm0 0" fill="#ffc843"/><path d="m334.632812 132.171875v-18.652344c0-10.464843-8.511718-18.976562-18.976562-18.976562h-39.304688c-4.265624 0-7.726562 3.457031-7.726562 7.726562v78.785157c0 9.964843 15.453125 9.964843 15.453125 0v-23.632813l38.074219 29.722656c7.78125 6.074219 17.402344-6.015625 9.507812-12.179687l-30.503906-23.8125h14.5c10.464844 0 18.976562-8.515625 18.976562-18.980469zm-50.554687 3.527344v-25.703125h31.578125c1.941406 0 3.523438 1.582031 3.523438 3.523437v18.652344c0 1.945313-1.582032 3.527344-3.523438 3.527344zm0 0" fill="#ffc843"/><path d="m474.382812 368.4375v-53.238281c-.003906-4.148438-.496093-8.28125-1.46875-12.3125l-.902343-3.757813c-4.273438-17.730468-15.058594-33.367187-30.53125-43.027344-10.683594-6.667968-23.296875-10.523437-36.792969-10.523437h-61.171875c31.679687-26.011719 50.636719-65.222656 50.636719-106.90625 0-76.1875-61.976563-138.171875-138.152344-138.171875-22.847656 0-45.492188 5.699219-65.476562 16.476562-8.773438 4.730469-1.4375 18.332032 7.332031 13.601563 17.742187-9.566406 37.847656-14.625 58.144531-14.625 67.65625 0 122.699219 55.050781 122.699219 122.71875 0 43.957031-23.734375 84.820313-61.941407 106.648437-.144531.078126-.273437.171876-.410156.257813h-121.035156c-.398438-.367187-.84375-.703125-1.332031-.992187-37.429688-21.976563-60.679688-62.558594-60.679688-105.914063 0-28.632813 10.070313-56.5 28.355469-78.46875 6.375-7.660156-5.5-17.546875-11.875-9.886719-20.589844 24.738282-31.933594 56.117188-31.933594 88.355469 0 24.53125 6.515625 48.632813 18.835938 69.691406 8.3125 14.207031 19.125 26.816407 31.804687 37.214844h-61.175781c-29.238281 0-54.328125 18.101563-64.660156 43.691406-.527344 1.3125-.925782 2.675781-1.242188 4.058594-.015625.058594-.027344.117187-.042968.175781-2.273438 9.878906-3.421876 19.992188-3.421876 30.128906v83.378907c0 10.136719 1.148438 20.246093 3.421876 30.125.015624.0625.027343.121093.042968.175781.316406 1.382812.710938 2.746094 1.242188 4.0625 10.328125 25.585938 35.417968 43.6875 64.65625 43.6875h97.179687c9.714844 0 19.070313-3.917969 25.699219-11.019531 7.863281-8.425781 14.40625-18.382813 27.144531-18.347657 12.484375.03125 19.089844 9.628907 26.796875 17.972657 6.691406 7.242187 16.1875 11.394531 26.050782 11.394531h94.503906c13.496094 0 26.109375-3.855469 36.792968-10.523438 15.472657-9.65625 26.257813-25.292968 30.53125-43.027343l.90625-3.757813c.96875-4.03125 1.460938-8.160156 1.464844-12.308594v-.089843c0-9.890625-15.226562-9.964844-15.449218-.21875-.6875 29.949219-23.714844 54.472656-53.671876 54.472656h-95.078124c-5.589844 0-10.921876-2.339844-14.714844-6.441406-10.9375-11.839844-20.527344-22.929688-38.132813-22.929688-17.589843 0-27.203125 11.097657-38.136719 22.929688-3.792968 4.105469-9.125 6.441406-14.710937 6.441406h-77.257813l-25.277343-1.65625c-15.929688-1.042969-30.734375-9.128906-39.644531-22.371094-.347657-.515625-.6875-1.039062-1.015626-1.566406-4.925781-7.882813-7.355468-17.074219-7.425781-26.367187l-.792969-102.363282c0-29.917968 24.332032-54.253906 54.242188-54.253906 0 0 298.664062.011719 299.304688.035156 25.167968.882813 46.050781 19.839844 50.386718 44.644532l.054688.316406c1.246094 7.125 1.871094 14.339844 1.871094 21.566406v40.84375c0 9.964844 15.453124 9.964844 15.453124 0zm0 0" fill="#434c54"/></svg>