<svg id="Layer_1" xmlns="http://www.w3.org/2000/svg" viewBox="-146 226 50 50"><style>.st0{fill:#61dafb}.st1{fill:#fff}</style><path class="st0" d="M-100.7 276h-40.7c-2.6 0-4.7-2.1-4.7-4.7v-40.7c0-2.6 2.1-4.7 4.7-4.7h40.7c2.6 0 4.7 2.1 4.7 4.7v40.7c0 2.6-2.1 4.7-4.7 4.7z"/><circle class="st1" cx="-121" cy="251" r="3.2"/><path class="st1" d="M-108.8 245.7c-.6-.2-1.3-.5-1.9-.6.2-.7.3-1.4.4-2 .6-3.7-.1-6.3-1.9-7.4-.5-.3-1.1-.5-1.8-.5-2 0-4.5 1.5-7 3.9-2.5-2.5-5-3.9-7-3.9-.7 0-1.3.1-1.8.5-1.8 1-2.5 3.7-1.9 7.4.1.6.3 1.3.4 2-.7.2-1.3.4-1.9.6-3.5 1.4-5.4 3.2-5.4 5.3s1.9 3.9 5.4 5.3c.6.2 1.3.5 1.9.6-.2.7-.3 1.4-.4 2-.6 3.7.1 6.3 1.9 7.4.5.3 1.1.5 1.8.5 2 0 4.5-1.5 7-3.9 2.5 2.5 5 3.9 7 3.9.7 0 1.3-.1 1.8-.5 1.8-1 2.5-3.7 1.9-7.4-.1-.6-.3-1.3-.4-2 .7-.2 1.3-.4 1.9-.6 3.5-1.4 5.4-3.2 5.4-5.3s-1.9-3.9-5.4-5.3zm-4.2-8.6c1.2.7 1.6 2.8 1.1 5.7-.1.6-.2 1.2-.4 1.9-1.5-.3-3-.6-4.7-.7-1-1.4-1.9-2.6-2.9-3.7 2.1-2.1 4.2-3.5 5.9-3.5.4 0 .8.1 1 .3zm-3.1 16.7c-.5.9-1.1 1.8-1.7 2.7-1 .1-2.1.1-3.2.1s-2.1 0-3.2-.1c-.6-.9-1.2-1.8-1.7-2.7-.5-.9-1-1.9-1.5-2.8.5-.9 1-1.9 1.5-2.8.5-.9 1.1-1.8 1.7-2.7 1-.1 2.1-.1 3.2-.1s2.1 0 3.2.1c.6.9 1.2 1.8 1.7 2.7.5.9 1 1.9 1.5 2.8-.5.9-1 1.9-1.5 2.8zm2.3-.9c.4 1 .8 1.9 1.1 2.9-1 .2-2 .4-3 .5.3-.5.7-1.1 1-1.7.3-.6.6-1.1.9-1.7zm-7.2 7.6c-.7-.7-1.3-1.5-1.9-2.3.6 0 1.3.1 1.9.1s1.3 0 1.9-.1c-.6.8-1.2 1.6-1.9 2.3zm-5.2-4.2c-1.1-.1-2.1-.3-3-.5.3-.9.6-1.9 1.1-2.9.3.6.6 1.2 1 1.7.2.6.5 1.1.9 1.7zm-2-7.2c-.4-1-.8-1.9-1.1-2.9 1-.2 2-.4 3-.5-.3.5-.7 1.1-1 1.7-.3.6-.6 1.1-.9 1.7zm7.2-7.6c.7.7 1.3 1.5 1.9 2.3-.6 0-1.3-.1-1.9-.1s-1.3 0-1.9.1c.6-.8 1.2-1.6 1.9-2.3zm6.3 5.9l-1-1.7c1.1.1 2.1.3 3 .5-.3.9-.6 1.9-1.1 2.9-.3-.6-.6-1.1-.9-1.7zm-15.4-4.6c-.5-3-.1-5 1.1-5.7.3-.2.6-.3 1-.3 1.7 0 3.8 1.4 5.9 3.5-1 1.1-2 2.3-2.9 3.7-1.6.1-3.2.4-4.7.7-.2-.7-.3-1.3-.4-1.9zm-7 8.2c0-1.3 1.6-2.7 4.4-3.8l1.8-.6c.5 1.4 1 2.9 1.7 4.4-.7 1.5-1.3 3-1.7 4.4-3.8-1.1-6.2-2.8-6.2-4.4zm8.1 13.9c-1.2-.7-1.6-2.8-1.1-5.7.1-.6.2-1.2.4-1.9 1.5.3 3 .6 4.7.7 1 1.4 1.9 2.6 2.9 3.7-2.1 2.1-4.2 3.5-5.9 3.5-.4 0-.8-.1-1-.3zm17.1-5.7c.5 3 .1 5-1.1 5.7-.3.2-.6.3-1 .3-1.7 0-3.8-1.4-5.9-3.5 1-1.1 2-2.3 2.9-3.7 1.6-.1 3.2-.4 4.7-.7.2.7.3 1.3.4 1.9zm2.5-4.4l-1.8.6c-.5-1.4-1-2.9-1.7-4.4.7-1.5 1.3-3 1.7-4.4 3.9 1.1 6.2 2.8 6.2 4.4.1 1.3-1.6 2.7-4.4 3.8z"/></svg>