<?xml version="1.0" encoding="UTF-8" standalone="no"?>
<svg width="100px" height="100px" viewBox="0 0 100 100" version="1.1" xmlns="http://www.w3.org/2000/svg" xmlns:xlink="http://www.w3.org/1999/xlink">
    <!-- Generator: Sketch 47.1 (45422) - http://www.bohemiancoding.com/sketch -->
    <title>ISH</title>
    <desc>Created with Sketch.</desc>
    <defs></defs>
    <g id="Page-1" stroke="none" stroke-width="1" fill="none" fill-rule="evenodd">
        <g id="ISH">
            <rect id="Rectangle" fill="#FF916E" x="0" y="0" width="100" height="100" rx="50"></rect>
            <g id="Group-2" transform="translate(12.000000, 26.000000)">
                <path d="M8.73836887,0 C7.1167082,0 5.82557924,1.38304688 5.82557924,3.00760675 L5.82557924,36.8953352 L66.0232314,36.8953352 L66.0232314,3.00760675 C66.0232314,1.38304688 64.7321025,0 63.1104418,0 L8.73836887,0 Z" id="Combined-Shape" fill="#353F49"></path>
                <path d="M9.74870765,3 L62.565225,3 C63.0799842,3 63.5083771,3.42352811 63.5083771,4.03525656 L63.5083771,6.77260838 L63.5083771,8.65891258 L63.5083771,29.4082587 L63.5083771,31.2945629 L63.5083771,36.9534755 L45.5884873,36.9534755 L26.0843962,36.9534755 L23.4759921,36.9534755 L8.80555556,36.9534755 L8.80555556,4.03525656 C8.80555556,3.42352811 9.23394844,3 9.74870765,3 Z" id="Combined-Shape" fill="#FFFFFF"></path>
                <path d="M0.485195737,36.9000015 L71.4950652,36.9000015 L71.4950652,38.0119802 C71.4950652,39.6446469 69.6583931,40.9000015 67.4105336,40.9000015 L4.56972938,40.9000015 C2.32211336,40.9000015 0.485195737,39.6445135 0.485195737,38.0119802 L0.485195737,36.9000015 Z" id="Path" fill="#E8E8E8"></path>
                <g id="Group" transform="translate(27.000000, 7.000000)">
                    <path d="M4.18603868,11 L4.18603868,7.82969432 C4.18603868,5.12551361 6.14110429,2.34626067 9.5,2.34626067 C12.8588957,2.34626067 14.721994,4.70427494 14.721994,7.82969432 L14.721994,11 L17,11 L17,7.82969432 C17,3.50655022 13.6411043,0 9.5,0 C5.35889571,0 2,3.50655022 2,7.82969432 L2,11 L4.18603868,11 Z" id="Path" fill="#DEDEDE"></path>
                    <rect id="Rectangle-2" fill="#F77B55" x="0" y="11" width="19" height="12"></rect>
                    <rect id="Rectangle-2" fill="#353F49" transform="translate(9.500000, 24.500000) scale(1, -1) translate(-9.500000, -24.500000) " x="0" y="23" width="19" height="3"></rect>
                    <rect id="Rectangle-2" fill="#FFFFFF" transform="translate(9.500000, 17.000000) scale(1, -1) translate(-9.500000, -17.000000) " x="3" y="15" width="13" height="4"></rect>
                    <circle id="Oval" fill="#353F49" cx="5" cy="17" r="1"></circle>
                    <circle id="Oval" fill="#353F49" cx="8" cy="17" r="1"></circle>
                    <circle id="Oval" fill="#353F49" cx="11" cy="17" r="1"></circle>
                    <circle id="Oval" fill="#353F49" cx="14" cy="17" r="1"></circle>
                </g>
            </g>
            <g id="smartphone-(1)" transform="translate(70.000000, 42.000000)">
                <path d="M2.46246078,0 L15.6128401,0 C17.3099888,0 18,0.855789613 18,2.50579636 L18,29.6489676 C18,31.2989743 17.3099888,32 15.6128401,32 L2.46246078,32 C0.765312136,32 0,31.2989743 0,29.6489676 L0,2.50579636 C-6.52900146e-05,0.855789613 0.765312136,0 2.46246078,0 Z" id="Shape" fill="#353F49" fill-rule="nonzero"></path>
                <path d="M7.74996826,29.2000008 L10.2499683,29.2000008 C10.6749397,29.2000008 10.9999365,29.5165226 10.9999365,29.9304119 C10.9999365,30.3443012 10.6749397,30.660823 10.2499683,30.660823 L7.74996826,30.660823 C7.32499683,30.660823 7,30.3443012 7,29.9304119 C7,29.5408181 7.32493335,29.2000008 7.74996826,29.2000008 Z M7.5,1 L10.5,1 C10.7749778,1 11,1.21915425 11,1.48696136 C11,1.75476847 10.7749778,1.97392272 10.5,1.97392272 L7.5,1.97392272 C7.22502222,1.97392272 7,1.75476847 7,1.48696136 C7,1.21915425 7.22495874,1 7.5,1 Z" id="Shape" fill="#5E6774" fill-rule="nonzero"></path>
                <rect id="Rectangle-3" fill="#FFFFFF" x="2" y="3" width="14" height="25"></rect>
                <circle id="Oval-2" fill="#92DEEB" cx="9" cy="15.5" r="5.5"></circle>
                <polygon id="Path-2" fill="#FFFFFF" points="6 15.8639646 6.63491793 15.2300988 8.1629104 16.7292052 11.3983328 13.5 12.0288509 14.1314746 8.1629104 18.0092755"></polygon>
            </g>
        </g>
    </g>
</svg>