<?xml version="1.0" encoding="utf-8"?>
<!-- Generator: Adobe Illustrator 19.0.0, SVG Export Plug-In . SVG Version: 6.00 Build 0)  -->
<svg version="1.1" id="Layer_1" xmlns="http://www.w3.org/2000/svg" xmlns:xlink="http://www.w3.org/1999/xlink" x="0px" y="0px"
	 viewBox="-66 -93 667 667" style="enable-background:new -66 -93 667 667;" xml:space="preserve">
<style type="text/css">
	.st0{fill:#F75858;}
	.st1{fill:#FFFFFF;}
</style>
<title>Group</title>
<desc>Created with Sketch.</desc>
<rect id="Rectangle-4" x="-66.1" y="-93" class="st0" width="667" height="667"/>
<g>
	<path class="st1" d="M42.1,198.8c11,0,16.6-3.8,16.6-11.3c0-2.3-0.5-4.3-1.5-5.9c-1-1.6-2.3-3-4-4.2c-1.7-1.2-3.6-2.2-5.7-3.1
		c-2.1-0.9-4.4-1.7-6.8-2.6c-2.8-0.9-5.4-2-7.8-3.2c-2.5-1.2-4.6-2.6-6.4-4.2c-1.8-1.6-3.2-3.6-4.3-5.8c-1.1-2.2-1.6-5-1.6-8.2
		c0-6.6,2.2-11.8,6.8-15.5c4.5-3.7,10.7-5.6,18.6-5.6c4.6,0,8.7,0.5,12.5,1.5c3.7,1,6.5,2.1,8.2,3.2l-3.4,8.6
		c-1.5-0.9-3.8-1.9-6.8-2.8c-3-0.9-6.5-1.4-10.5-1.4c-2,0-3.9,0.2-5.7,0.7c-1.7,0.4-3.3,1.1-4.6,2c-1.3,0.9-2.3,2-3.1,3.3
		c-0.8,1.3-1.1,2.9-1.1,4.7c0,2,0.4,3.7,1.2,5.1c0.8,1.4,1.9,2.6,3.4,3.6c1.5,1.1,3.1,2,5.1,2.9c1.9,0.9,4,1.7,6.4,2.6
		c3.3,1.3,6.3,2.6,9,3.9c2.7,1.3,5.1,2.9,7.1,4.7c2,1.8,3.5,4,4.6,6.5c1.1,2.5,1.6,5.5,1.6,9.1c0,6.6-2.4,11.7-7.2,15.2
		c-4.8,3.6-11.6,5.3-20.4,5.3c-3,0-5.7-0.2-8.2-0.6c-2.5-0.4-4.7-0.9-6.7-1.4c-2-0.5-3.6-1.1-5.1-1.7c-1.4-0.6-2.5-1.1-3.3-1.6
		l3.2-8.7c1.7,0.9,4.2,2,7.6,3.2C33,198.2,37.2,198.8,42.1,198.8z"/>
	<path class="st1" d="M78.7,178.1c0-5,0.7-9.4,2.2-13.1c1.5-3.7,3.4-6.8,5.8-9.3c2.4-2.5,5.2-4.3,8.3-5.6c3.1-1.2,6.3-1.9,9.6-1.9
		c7.6,0,13.5,2.4,17.5,7.1c4.1,4.8,6.1,12,6.1,21.7c0,0.4,0,1,0,1.7c0,0.7,0,1.3-0.1,1.9H89.3c0.4,5.9,2.1,10.3,5.1,13.4
		c3,3,7.6,4.6,13.9,4.6c3.6,0,6.6-0.3,9-0.9c2.4-0.6,4.3-1.2,5.5-1.8l1.4,8.5c-1.2,0.7-3.4,1.3-6.5,2.1c-3.1,0.7-6.6,1.1-10.5,1.1
		c-4.9,0-9.2-0.7-12.8-2.2c-3.6-1.5-6.6-3.5-8.9-6.2c-2.3-2.6-4-5.7-5.2-9.3C79.3,186.3,78.7,182.4,78.7,178.1z M117.6,172.5
		c0.1-4.6-1.1-8.3-3.4-11.3c-2.4-2.9-5.6-4.4-9.7-4.4c-2.3,0-4.4,0.5-6.2,1.4c-1.8,0.9-3.3,2.1-4.5,3.5c-1.2,1.5-2.2,3.1-2.9,5
		c-0.7,1.9-1.1,3.8-1.4,5.8H117.6z"/>
	<path class="st1" d="M163.6,148.5c0.9,0,1.9,0.1,3,0.2c1.1,0.1,2.2,0.3,3.3,0.4c1.1,0.2,2.1,0.4,3,0.5c0.9,0.2,1.6,0.3,2,0.5
		l-1.7,8.8c-0.8-0.3-2.1-0.6-4-1c-1.9-0.4-4.2-0.6-7.1-0.6c-1.9,0-3.8,0.2-5.6,0.6c-1.9,0.4-3.1,0.7-3.6,0.8v47.6h-10.1V152
		c2.4-0.9,5.4-1.7,8.9-2.5C155.2,148.8,159.2,148.5,163.6,148.5z"/>
	<path class="st1" d="M231.2,149.7c-2.8,10.6-6.2,20.8-10,30.5c-3.8,9.7-7.5,18.4-11.1,26.1h-9.1c-3.6-7.7-7.2-16.4-11.1-26.1
		c-3.8-9.7-7.1-19.9-10-30.5H191c0.9,3.6,1.9,7.4,3.1,11.4c1.2,4,2.5,8,3.8,12c1.3,4,2.7,7.8,4.1,11.5c1.4,3.7,2.7,7,3.9,9.9
		c1.2-2.9,2.5-6.2,3.9-9.9c1.4-3.7,2.7-7.5,4.1-11.5c1.3-4,2.6-7.9,3.8-12c1.2-4,2.2-7.8,3.1-11.4H231.2z"/>
	<path class="st1" d="M237,178.1c0-5,0.7-9.4,2.2-13.1c1.5-3.7,3.4-6.8,5.8-9.3c2.4-2.5,5.2-4.3,8.3-5.6c3.1-1.2,6.3-1.9,9.6-1.9
		c7.6,0,13.5,2.4,17.5,7.1c4.1,4.8,6.1,12,6.1,21.7c0,0.4,0,1,0,1.7c0,0.7,0,1.3-0.1,1.9h-38.8c0.4,5.9,2.1,10.3,5.1,13.4
		c3,3,7.6,4.6,13.9,4.6c3.6,0,6.6-0.3,9-0.9c2.4-0.6,4.3-1.2,5.5-1.8l1.4,8.5c-1.2,0.7-3.4,1.3-6.5,2.1c-3.1,0.7-6.6,1.1-10.5,1.1
		c-4.9,0-9.2-0.7-12.8-2.2c-3.6-1.5-6.6-3.5-8.9-6.2c-2.3-2.6-4-5.7-5.2-9.3C237.6,186.3,237,182.4,237,178.1z M275.9,172.5
		c0.1-4.6-1.1-8.3-3.4-11.3c-2.4-2.9-5.6-4.4-9.7-4.4c-2.3,0-4.4,0.5-6.2,1.4c-1.8,0.9-3.3,2.1-4.5,3.5c-1.2,1.5-2.2,3.1-2.9,5
		c-0.7,1.9-1.1,3.8-1.4,5.8H275.9z"/>
	<path class="st1" d="M322,148.5c0.9,0,1.9,0.1,3,0.2c1.1,0.1,2.2,0.3,3.3,0.4c1.1,0.2,2.1,0.4,3,0.5c0.9,0.2,1.6,0.3,2,0.5
		l-1.7,8.8c-0.8-0.3-2.1-0.6-4-1c-1.9-0.4-4.2-0.6-7.1-0.6c-1.9,0-3.8,0.2-5.6,0.6c-1.9,0.4-3.1,0.7-3.6,0.8v47.6H301V152
		c2.4-0.9,5.4-1.7,8.9-2.5C313.5,148.8,317.5,148.5,322,148.5z"/>
	<path class="st1" d="M360.1,207.4c-6.2-0.1-10.7-1.5-13.3-4c-2.6-2.5-3.9-6.5-3.9-11.9v-67.9l10.1-1.7v68.1c0,1.7,0.1,3,0.4,4.1
		c0.3,1.1,0.8,2,1.4,2.6c0.7,0.7,1.5,1.1,2.6,1.5c1.1,0.3,2.4,0.6,4,0.8L360.1,207.4z"/>
	<path class="st1" d="M369.7,178.1c0-5,0.7-9.4,2.2-13.1c1.5-3.7,3.4-6.8,5.8-9.3c2.4-2.5,5.2-4.3,8.3-5.6c3.1-1.2,6.3-1.9,9.6-1.9
		c7.6,0,13.5,2.4,17.5,7.1c4.1,4.8,6.1,12,6.1,21.7c0,0.4,0,1,0,1.7c0,0.7,0,1.3-0.1,1.9h-38.8c0.4,5.9,2.1,10.3,5.1,13.4
		c3,3,7.6,4.6,13.9,4.6c3.6,0,6.6-0.3,9-0.9c2.4-0.6,4.3-1.2,5.5-1.8l1.4,8.5c-1.2,0.7-3.4,1.3-6.5,2.1c-3.1,0.7-6.6,1.1-10.5,1.1
		c-4.9,0-9.2-0.7-12.8-2.2c-3.6-1.5-6.6-3.5-8.9-6.2c-2.3-2.6-4-5.7-5.2-9.3C370.2,186.3,369.7,182.4,369.7,178.1z M408.5,172.5
		c0.1-4.6-1.1-8.3-3.4-11.3c-2.4-2.9-5.6-4.4-9.7-4.4c-2.3,0-4.4,0.5-6.2,1.4c-1.8,0.9-3.3,2.1-4.5,3.5c-1.2,1.5-2.2,3.1-2.9,5
		c-0.7,1.9-1.1,3.8-1.4,5.8H408.5z"/>
	<path class="st1" d="M446.9,199c4.1,0,7.2-0.5,9.2-1.6c2-1.1,3-2.8,3-5.2c0-2.5-1-4.4-2.9-5.9c-2-1.5-5.2-3.1-9.7-4.9
		c-2.2-0.9-4.3-1.8-6.3-2.7c-2-0.9-3.7-2-5.2-3.2c-1.5-1.2-2.6-2.7-3.5-4.5c-0.9-1.7-1.3-3.9-1.3-6.4c0-5,1.9-9,5.6-11.9
		c3.7-2.9,8.7-4.4,15.1-4.4c1.6,0,3.2,0.1,4.8,0.3c1.6,0.2,3.1,0.4,4.5,0.7c1.4,0.3,2.6,0.5,3.6,0.8c1.1,0.3,1.9,0.5,2.4,0.8
		l-1.9,8.7c-1.1-0.6-2.8-1.2-5.1-1.8c-2.3-0.6-5.1-0.9-8.4-0.9c-2.8,0-5.3,0.6-7.4,1.7c-2.1,1.1-3.2,2.9-3.2,5.3
		c0,1.2,0.2,2.3,0.7,3.3c0.5,0.9,1.2,1.8,2.2,2.6c1,0.8,2.2,1.5,3.6,2.1c1.5,0.7,3.2,1.3,5.2,2.1c2.7,1,5.1,2,7.2,3
		c2.1,1,3.9,2.1,5.4,3.4c1.5,1.3,2.6,2.9,3.4,4.7s1.2,4.1,1.2,6.8c0,5.2-1.9,9.2-5.8,11.9c-3.9,2.7-9.4,4-16.6,4
		c-5,0-8.9-0.4-11.8-1.3c-2.8-0.8-4.8-1.5-5.8-1.9l1.9-8.7c1.2,0.4,3,1.1,5.6,2C439.3,198.5,442.6,199,446.9,199z"/>
	<path class="st1" d="M495.4,199c4.1,0,7.2-0.5,9.2-1.6c2-1.1,3-2.8,3-5.2c0-2.5-1-4.4-2.9-5.9c-2-1.5-5.2-3.1-9.7-4.9
		c-2.2-0.9-4.3-1.8-6.3-2.7c-2-0.9-3.7-2-5.2-3.2c-1.5-1.2-2.6-2.7-3.5-4.5c-0.9-1.7-1.3-3.9-1.3-6.4c0-5,1.9-9,5.6-11.9
		c3.7-2.9,8.7-4.4,15.1-4.4c1.6,0,3.2,0.1,4.8,0.3c1.6,0.2,3.1,0.4,4.5,0.7c1.4,0.3,2.6,0.5,3.6,0.8c1.1,0.3,1.9,0.5,2.4,0.8
		l-1.9,8.7c-1.1-0.6-2.8-1.2-5.1-1.8c-2.3-0.6-5.1-0.9-8.4-0.9c-2.8,0-5.3,0.6-7.4,1.7c-2.1,1.1-3.2,2.9-3.2,5.3
		c0,1.2,0.2,2.3,0.7,3.3c0.5,0.9,1.2,1.8,2.2,2.6c1,0.8,2.2,1.5,3.6,2.1c1.5,0.7,3.2,1.3,5.2,2.1c2.7,1,5.1,2,7.2,3
		c2.1,1,3.9,2.1,5.4,3.4c1.5,1.3,2.6,2.9,3.4,4.7s1.2,4.1,1.2,6.8c0,5.2-1.9,9.2-5.8,11.9c-3.9,2.7-9.4,4-16.6,4
		c-5,0-8.9-0.4-11.8-1.3c-2.8-0.8-4.8-1.5-5.8-1.9l1.9-8.7c1.2,0.4,3,1.1,5.6,2C487.8,198.5,491.2,199,495.4,199z"/>
	<path class="st1" d="M36.8,346.5c-5.3,0-10.1-0.9-14.5-2.6s-8.1-4.3-11.2-7.6c-3.1-3.3-5.5-7.5-7.2-12.4
		c-1.7-4.9-2.6-10.5-2.6-16.8c0-6.3,1-11.9,2.9-16.8c1.9-4.9,4.5-9,7.8-12.4c3.3-3.3,7.1-5.9,11.4-7.6c4.4-1.7,9-2.6,13.9-2.6
		c3.1,0,5.9,0.2,8.4,0.7c2.5,0.4,4.7,0.9,6.5,1.5c1.9,0.6,3.4,1.2,4.5,1.7c1.2,0.6,2,1,2.4,1.3l-3,8.7c-0.7-0.4-1.6-0.9-2.8-1.4
		c-1.2-0.5-2.6-1-4.2-1.5c-1.6-0.5-3.3-0.9-5.1-1.3c-1.9-0.3-3.7-0.5-5.6-0.5c-4,0-7.6,0.7-10.8,2.1c-3.2,1.4-5.9,3.4-8.2,6
		c-2.3,2.6-4,5.8-5.2,9.5c-1.2,3.7-1.8,7.9-1.8,12.6c0,4.5,0.5,8.6,1.6,12.3c1.1,3.7,2.6,6.9,4.7,9.5c2.1,2.7,4.7,4.7,7.9,6.2
		c3.2,1.5,6.8,2.2,11.1,2.2c4.9,0,8.9-0.5,12.1-1.5c3.2-1,5.6-1.9,7.2-2.7l2.7,8.7c-0.5,0.4-1.4,0.8-2.7,1.4
		c-1.3,0.5-2.9,1.1-4.9,1.6c-2,0.5-4.2,0.9-6.9,1.3C42.7,346.3,39.9,346.5,36.8,346.5z"/>
	<path class="st1" d="M119.6,316.6c0,4.5-0.7,8.6-2,12.2c-1.3,3.6-3.1,6.8-5.5,9.4c-2.4,2.6-5.2,4.6-8.4,6
		c-3.3,1.4-6.8,2.1-10.7,2.1c-3.8,0-7.4-0.7-10.7-2.1c-3.3-1.4-6.1-3.4-8.4-6c-2.4-2.6-4.2-5.7-5.5-9.4c-1.3-3.6-2-7.7-2-12.2
		c0-4.4,0.7-8.5,2-12.1c1.3-3.7,3.1-6.8,5.5-9.4c2.4-2.6,5.2-4.6,8.4-6c3.3-1.4,6.8-2.1,10.7-2.1c3.8,0,7.4,0.7,10.7,2.1
		c3.3,1.4,6.1,3.4,8.4,6c2.4,2.6,4.2,5.8,5.5,9.4C118.9,308.1,119.6,312.1,119.6,316.6z M109,316.6c0-6.4-1.4-11.5-4.3-15.2
		c-2.9-3.7-6.8-5.6-11.7-5.6c-4.9,0-8.8,1.9-11.7,5.6c-2.9,3.7-4.3,8.8-4.3,15.2c0,6.4,1.4,11.5,4.3,15.2c2.9,3.7,6.8,5.6,11.7,5.6
		c4.9,0,8.8-1.9,11.7-5.6C107.6,328,109,322.9,109,316.6z"/>
	<path class="st1" d="M133.8,289.9c2.3-0.6,5.4-1.2,9.2-1.9c3.8-0.7,8.2-1,13.2-1c3.6,0,6.7,0.5,9.1,1.5c2.5,1,4.5,2.4,6.2,4.3
		c0.5-0.4,1.3-0.9,2.4-1.5c1.1-0.7,2.4-1.3,4-1.9c1.6-0.6,3.4-1.2,5.3-1.6c2-0.5,4.1-0.7,6.3-0.7c4.4,0,7.9,0.6,10.7,1.9
		c2.8,1.3,4.9,3.1,6.5,5.4c1.6,2.3,2.6,5.1,3.2,8.3c0.5,3.2,0.8,6.7,0.8,10.5v31.8h-10.1v-29.6c0-3.3-0.2-6.2-0.5-8.6
		c-0.3-2.4-0.9-4.4-1.9-6c-0.9-1.6-2.1-2.8-3.7-3.5c-1.6-0.8-3.6-1.1-6-1.1c-3.4,0-6.2,0.5-8.4,1.4c-2.2,0.9-3.7,1.7-4.5,2.5
		c0.6,1.9,1,4,1.3,6.2c0.3,2.3,0.4,4.6,0.4,7.1v31.8h-10.1v-29.6c0-3.3-0.2-6.2-0.5-8.6c-0.4-2.4-1-4.4-1.9-6
		c-0.9-1.6-2.1-2.8-3.7-3.5c-1.6-0.8-3.5-1.1-5.9-1.1c-1,0-2.1,0-3.3,0.1c-1.2,0.1-2.3,0.2-3.3,0.3c-1.1,0.1-2,0.2-2.9,0.4
		c-0.9,0.1-1.5,0.3-1.7,0.3v47.8h-10.1V289.9z"/>
	<path class="st1" d="M277.5,316.7c0,4.3-0.6,8.2-1.7,11.9c-1.1,3.6-2.8,6.8-5,9.4c-2.2,2.6-4.8,4.6-8,6.1
		c-3.2,1.5-6.8,2.2-10.8,2.2c-3.3,0-6.2-0.4-8.7-1.3s-4.4-1.7-5.6-2.5V365h-10.1v-75c2.4-0.6,5.4-1.2,9-1.9c3.6-0.7,7.7-1,12.5-1
		c4.4,0,8.3,0.7,11.8,2.1c3.5,1.4,6.5,3.3,8.9,5.9c2.5,2.5,4.4,5.6,5.7,9.3C276.8,308,277.5,312.1,277.5,316.7z M266.9,316.7
		c0-6.6-1.6-11.7-4.9-15.2c-3.3-3.6-7.6-5.3-13.1-5.3c-3,0-5.4,0.1-7.1,0.3c-1.7,0.2-3.1,0.5-4.1,0.8v35.7c1.2,1,3,2,5.3,2.9
		c2.3,0.9,4.9,1.4,7.6,1.4c2.9,0,5.4-0.5,7.5-1.6c2.1-1.1,3.8-2.5,5.1-4.4c1.3-1.9,2.2-4,2.8-6.5
		C266.6,322.3,266.9,319.6,266.9,316.7z"/>
	<path class="st1" d="M336.8,343.2c-2.3,0.6-5.4,1.2-9.2,1.9c-3.8,0.7-8.2,1-13.2,1c-4.4,0-8-0.6-11-1.9c-3-1.3-5.4-3.1-7.2-5.4
		c-1.8-2.3-3.1-5.1-3.9-8.2c-0.8-3.2-1.2-6.7-1.2-10.5v-31.8h10.1v29.6c0,6.9,1.1,11.8,3.3,14.8c2.2,3,5.8,4.5,11,4.5
		c1.1,0,2.2,0,3.4-0.1c1.2-0.1,2.2-0.2,3.3-0.3c1-0.1,1.9-0.2,2.8-0.3c0.8-0.1,1.4-0.2,1.8-0.4v-47.8h10.1V343.2z"/>
	<path class="st1" d="M363.7,288.2h21.5v8.5h-21.5v26.1c0,2.8,0.2,5.2,0.7,7c0.4,1.9,1.1,3.3,2,4.4c0.9,1.1,2,1.8,3.3,2.2
		c1.3,0.4,2.8,0.7,4.6,0.7c3.1,0,5.5-0.3,7.4-1c1.9-0.7,3.1-1.2,3.9-1.5l2,8.4c-1,0.5-2.8,1.1-5.3,1.9c-2.5,0.8-5.4,1.1-8.7,1.1
		c-3.8,0-7-0.5-9.5-1.5c-2.5-1-4.5-2.5-6-4.4c-1.5-2-2.6-4.4-3.2-7.2c-0.6-2.9-0.9-6.2-0.9-10v-50.5l10.1-1.7V288.2z"/>
	<path class="st1" d="M403,278c-1.8,0-3.4-0.6-4.6-1.8c-1.3-1.2-1.9-2.8-1.9-4.8s0.6-3.6,1.9-4.8c1.3-1.2,2.8-1.8,4.6-1.8
		c1.8,0,3.4,0.6,4.6,1.8c1.3,1.2,1.9,2.8,1.9,4.8s-0.6,3.6-1.9,4.8C406.4,277.4,404.8,278,403,278z M408.1,344.9H398v-56.6h10.1
		V344.9z"/>
	<path class="st1" d="M425.6,289.9c2.3-0.6,5.4-1.2,9.3-1.9c3.8-0.7,8.3-1,13.3-1c4.5,0,8.2,0.6,11.2,1.9c3,1.3,5.4,3,7.1,5.3
		c1.8,2.3,3,5,3.8,8.2c0.7,3.2,1.1,6.7,1.1,10.6v31.8h-10.1v-29.6c0-3.5-0.2-6.5-0.7-8.9c-0.5-2.5-1.3-4.5-2.3-6
		c-1.1-1.5-2.5-2.6-4.4-3.3c-1.8-0.7-4.1-1-6.8-1c-1.1,0-2.2,0-3.4,0.1c-1.2,0.1-2.3,0.2-3.3,0.3c-1.1,0.1-2,0.2-2.8,0.4
		c-0.8,0.1-1.4,0.3-1.8,0.3v47.8h-10.1V289.9z"/>
	<path class="st1" d="M523.6,339.2c-0.9,0.6-2.6,1.3-5.1,2.2c-2.5,0.9-5.4,1.4-8.8,1.4c-3.4,0-6.6-0.5-9.6-1.6
		c-3-1.1-5.6-2.8-7.9-5.1c-2.3-2.3-4-5.1-5.3-8.5c-1.3-3.4-2-7.5-2-12.2c0-4.1,0.6-7.9,1.9-11.4c1.2-3.4,3-6.4,5.4-8.9
		c2.4-2.5,5.2-4.5,8.7-5.9c3.4-1.4,7.3-2.1,11.5-2.1c4.7,0,8.8,0.3,12.4,1c3.5,0.7,6.5,1.3,8.9,1.9v50.5c0,8.7-2.3,15-6.8,18.9
		c-4.5,3.9-11.3,5.9-20.5,5.9c-3.6,0-6.9-0.3-10.1-0.9c-3.2-0.6-5.9-1.3-8.2-2.1l1.9-8.8c2,0.8,4.5,1.5,7.5,2.1
		c2.9,0.6,6,0.9,9.2,0.9c6,0,10.4-1.2,13-3.6c2.7-2.4,4-6.2,4-11.4V339.2z M523.5,297.2c-1-0.3-2.4-0.6-4.1-0.8
		c-1.7-0.3-4-0.4-6.9-0.4c-5.4,0-9.6,1.8-12.6,5.3c-2.9,3.6-4.4,8.3-4.4,14.2c0,3.3,0.4,6.1,1.3,8.4c0.8,2.3,2,4.2,3.4,5.8
		c1.4,1.5,3,2.7,4.9,3.4c1.9,0.7,3.8,1.1,5.7,1.1c2.7,0,5.2-0.4,7.4-1.1c2.2-0.8,4-1.7,5.3-2.7V297.2z"/>
</g>
</svg>
