<?xml version="1.0" encoding="UTF-8"?>
<svg width="50px" height="50px" viewBox="0 0 50 50" version="1.1" xmlns="http://www.w3.org/2000/svg" xmlns:xlink="http://www.w3.org/1999/xlink">
    <!-- Generator: Sketch 43.1 (39012) - http://www.bohemiancoding.com/sketch -->
    <title>Artboard Copy 5</title>
    <desc>Created with Sketch.</desc>
    <defs></defs>
    <g id="Page-1" stroke="none" stroke-width="1" fill="none" fill-rule="evenodd">
        <g id="Artboard-Copy-5">
            <rect id="Rectangle-Copy-3" fill="#E74C3C" x="0" y="0" width="50" height="50" rx="5"></rect>
            <path d="M20.7612305,22.6025391 C20.5219715,21.5703073 19.9375046,20.8491231 19.0078125,20.4389648 C18.4882787,20.2133778 17.9106477,20.1005859 17.2749023,20.1005859 C16.0580994,20.1005859 15.0583535,20.5602981 14.2756348,21.4797363 C13.492916,22.3991745 13.1015625,23.7817291 13.1015625,25.6274414 C13.1015625,27.4868257 13.5253864,28.8027305 14.3730469,29.5751953 C15.2207074,30.3476601 16.1845649,30.7338867 17.2646484,30.7338867 C18.324224,30.7338867 19.1923794,30.4279816 19.8691406,29.8161621 C20.5459018,29.2043426 20.9628898,28.402837 21.1201172,27.4116211 L17.6235352,27.4116211 L17.6235352,24.8891602 L23.9194336,24.8891602 L23.9194336,33 L21.8276367,33 L21.5097656,31.1132812 C20.9013641,31.8310583 20.3544946,32.3369126 19.8691406,32.6308594 C19.0351521,33.1435573 18.0097717,33.3999023 16.7929688,33.3999023 C14.790029,33.3999023 13.1494205,32.7060616 11.8710938,31.3183594 C10.5380793,29.9238212 9.87158203,28.0166137 9.87158203,25.5966797 C9.87158203,23.1494018 10.5449151,21.1875074 11.8916016,19.7109375 C13.238288,18.2343676 15.0190319,17.4960938 17.2338867,17.4960938 C19.1547948,17.4960938 20.6979922,17.9831494 21.8635254,18.9572754 C23.0290586,19.9314014 23.6972648,21.1464771 23.8681641,22.6025391 L20.7612305,22.6025391 Z M26.9135742,33 L26.9135742,17.8857422 L30.0410156,17.8857422 L30.0410156,23.6484375 L35.9472656,23.6484375 L35.9472656,17.8857422 L39.0849609,17.8857422 L39.0849609,33 L35.9472656,33 L35.9472656,26.2529297 L30.0410156,26.2529297 L30.0410156,33 L26.9135742,33 Z" id="GH" fill="#FFFFFF"></path>
        </g>
    </g>
</svg>