<?xml version="1.0" encoding="UTF-8"?>
<svg width="496px" height="512px" viewBox="0 0 496 512" version="1.1" xmlns="http://www.w3.org/2000/svg" xmlns:xlink="http://www.w3.org/1999/xlink">
    <!-- Generator: Sketch 52.6 (67491) - http://www.bohemiancoding.com/sketch -->
    <title>Shape</title>
    <desc>Created with Sketch.</desc>
    <g id="Page-1" stroke="none" stroke-width="1" fill="none" fill-rule="evenodd">
        <g id="search-header" fill="#007AFF" fill-rule="nonzero">
            <path d="M487.642173,466.350876 L365.785346,339.613664 C397.116877,302.368149 414.283608,255.50567 414.283608,206.719798 C414.283608,92.7362988 321.547309,0 207.56381,0 C93.5803111,0 0.844012218,92.7362988 0.844012218,206.719798 C0.844012218,320.703297 93.5803111,413.439596 207.56381,413.439596 C250.354808,413.439596 291.132535,400.53309 325.996278,376.0323 L448.778851,503.731208 C453.910894,509.060984 460.813538,512 468.210512,512 C475.212021,512 481.854018,509.330618 486.896184,504.477197 C497.609662,494.16817 497.951199,477.073342 487.642173,466.350876 Z M207.56381,53.9269038 C291.815609,53.9269038 360.356704,122.467998 360.356704,206.719798 C360.356704,290.971597 291.815609,359.512692 207.56381,359.512692 C123.312011,359.512692 54.770916,290.971597 54.770916,206.719798 C54.770916,122.467998 123.312011,53.9269038 207.56381,53.9269038 Z" id="Shape"></path>
        </g>
    </g>
</svg>